<svg xmlns="http://www.w3.org/2000/svg" viewBox="0 0 295.06 295.06"><title>Fichier 2</title><g id="Calque_2" data-name="Calque 2"><g id="Calque_1-2" data-name="Calque 1"><circle cx="147.53" cy="147.53" r="147.53" style="fill:#0f0e0e"/><path d="M27.8,234.45Q126,138.81,224.29,43.19l.85-4L44.88,41.57A147.84,147.84,0,0,1,87.69,12.64l118.57.22A139.59,139.59,0,0,1,266,59.47L69,251.53v1.19l183.41-1.41a147.68,147.68,0,0,1-44,30.64l-122.71-.09A160.55,160.55,0,0,1,27.8,234.45Z" style="fill:#8800c1"/><path d="M27.8,234.45,266,59.47,69,251.53Z" style="fill:#650696"/><path d="M72.28,67.74,54.92,85.54V217.68l19.67,14.85h73V214.68H76.19V155.27h55.55l12-17.58H76.19V85.59h67.73V67.74Z" style="fill:#fff"/><path d="M237,80.21C224.69,69.61,210.59,68,190.74,66.52a145.86,145.86,0,0,0-31.12,1.06l-15.7,18q1.88,64.41,3.76,128.81l23.5,18.13v-66c4.89,1.22,10.76,1.46,17.12,1.46,20.78,0,39.11-6.11,50.36-18.09,8.31-8.56,12.71-20.29,12.71-35.21C251.37,100,246,88,237,80.21Zm-48.17,70.66c-7.08,0-12.95-.49-17.6-1.71V85.1c3.67-1,10.76-1.71,20-1.71,23.47,0,38.87,10.51,38.87,32.27C230.1,138.4,214.46,150.87,188.78,150.87Z" style="fill:#fff"/><path d="M74.59,232.53q-9.82-73.5-19.67-147V217.68Z" style="fill:#c6c6c6"/><path d="M143.92,67.74H72.28l71.64,17.85Z" style="fill:#c6c6c6"/><path d="M171.18,232.53l-23.5-18.13q-1.87-64.4-3.76-128.81Q157.54,159.06,171.18,232.53Z" style="fill:#c6c6c6"/><path d="M85.69,281.86l166.68-30.55L170.92,282Z" style="fill:#650696"/><path d="M44.88,41.57,206.26,12.86,87.69,12.64A147.84,147.84,0,0,0,44.88,41.57Z" style="fill:#650696"/></g></g></svg>